<?xml version="1.0" standalone="no"?>
<!DOCTYPE svg PUBLIC "-//W3C//DTD SVG 20010904//EN"
 "http://www.w3.org/TR/2001/REC-SVG-20010904/DTD/svg10.dtd">
<svg version="1.0" xmlns="http://www.w3.org/2000/svg"
 width="100px" height="100px" viewBox="0 0 5120.000000 5120.000000"
 preserveAspectRatio="xMidYMid meet">

<g transform="translate(0.000000,5120.000000) scale(0.100000,-0.100000)"
fill="#000000" stroke="none">
<path d="M19960 44793 c-254 -18 -498 -56 -724 -113 -1407 -357 -2514 -1468
-2865 -2875 -65 -260 -97 -484 -111 -778 -5 -111 -10 -599 -10 -1084 l0 -883
-1577 0 c-1624 0 -1796 -4 -2062 -41 -1055 -148 -1998 -710 -2633 -1569 -434
-587 -691 -1266 -758 -2000 -14 -161 -14 -25279 1 -25440 76 -843 401 -1610
950 -2245 113 -130 346 -358 479 -466 605 -496 1318 -794 2105 -881 99 -11
1749 -13 9330 -13 8831 0 9216 1 9355 18 556 70 1052 232 1506 493 791 453
1393 1149 1727 1994 122 308 198 606 242 943 27 213 35 509 35 1405 l0 882
1578 0 c1623 0 1795 4 2061 41 1055 148 1998 710 2633 1569 434 587 691 1266
758 2000 14 161 14 25279 -1 25440 -67 748 -327 1428 -772 2022 -132 178 -238
297 -414 468 -668 652 -1530 1041 -2463 1110 -122 9 -18242 12 -18370 3z
m18456 -1215 c353 -59 590 -134 872 -277 301 -153 583 -369 798 -612 393 -443
622 -949 688 -1519 14 -122 16 -1353 16 -12700 0 -11119 -2 -12580 -15 -12694
-58 -494 -235 -935 -539 -1341 -104 -138 -367 -408 -496 -507 -411 -316 -882
-509 -1390 -569 -166 -20 -18294 -13 -18471 6 -333 38 -698 154 -991 316 -241
133 -415 265 -624 474 -425 424 -679 923 -781 1535 -16 99 -17 761 -23 12625
-3 6886 -2 12592 2 12680 18 390 101 709 278 1070 252 513 651 927 1160 1205
323 177 719 294 1090 323 25 2 4158 3 9185 3 8527 -1 9147 -3 9241 -18z
m-22163 -16750 c2 -8608 6 -11054 15 -11128 44 -338 100 -595 188 -857 151
-450 362 -838 668 -1223 120 -152 451 -484 601 -603 611 -486 1261 -755 2075
-859 73 -9 1681 -13 7023 -15 l6927 -3 0 -878 c0 -482 -5 -954 -10 -1047 -23
-411 -102 -719 -280 -1080 -252 -513 -651 -927 -1160 -1205 -278 -152 -594
-256 -935 -307 -115 -17 -513 -18 -9280 -18 -7575 0 -9177 2 -9260 13 -624 84
-1173 352 -1610 787 -450 448 -723 1019 -795 1660 -6 60 -10 4267 -10 12660 0
11124 2 12585 15 12699 61 524 262 1000 598 1416 99 123 316 337 437 431 433
336 950 538 1480 578 63 4 834 9 1712 10 l1598 1 3 -11032z"/>
</g>
</svg>
