<?xml version="1.0" standalone="no"?>
<!DOCTYPE svg PUBLIC "-//W3C//DTD SVG 20010904//EN"
 "http://www.w3.org/TR/2001/REC-SVG-20010904/DTD/svg10.dtd">
<svg version="1.0" xmlns="http://www.w3.org/2000/svg"
 width="835.000000pt" height="835.000000pt" viewBox="0 0 835.000000 835.000000"
 preserveAspectRatio="xMidYMid meet">

<g transform="translate(0.000000,835.000000) scale(0.100000,-0.100000)"
fill="#FFFFFF" stroke="none">
<path d="M620 7715 c0 -10 -10 -15 -27 -15 -28 0 -73 -37 -73 -59 0 -6 -7 -11
-15 -11 -8 0 -15 -7 -15 -15 0 -8 -6 -15 -14 -15 -10 0 -16 -20 -21 -72 -3
-40 -5 -1331 -3 -2869 3 -2647 4 -2796 20 -2813 10 -10 18 -26 18 -37 0 -10 7
-19 15 -19 8 0 15 -7 15 -15 0 -8 9 -15 20 -15 11 0 20 -7 20 -15 0 -10 10
-15 30 -15 20 0 30 -5 30 -15 0 -8 9 -15 20 -15 11 0 28 -9 37 -20 10 -11 30
-20 45 -20 18 0 28 -5 28 -15 0 -10 10 -15 30 -15 20 0 30 -5 30 -15 0 -8 9
-15 20 -15 11 0 20 -6 20 -14 0 -8 14 -17 30 -21 17 -4 30 -11 30 -15 0 -5 16
-12 35 -16 20 -3 35 -12 35 -20 0 -9 11 -14 30 -14 20 0 30 -5 30 -15 0 -8 9
-15 20 -15 11 0 28 -9 37 -20 10 -11 23 -20 29 -20 7 0 14 -7 18 -15 3 -9 18
-15 36 -15 20 0 30 -5 30 -15 0 -10 10 -15 30 -15 20 0 30 -5 30 -15 0 -8 9
-15 20 -15 11 0 28 -9 37 -20 10 -11 23 -20 30 -20 7 0 13 -7 13 -15 0 -10 10
-15 30 -15 20 0 30 -5 30 -15 0 -10 11 -15 35 -15 24 0 35 -5 35 -14 0 -8 13
-17 29 -21 16 -3 32 -13 35 -21 3 -8 12 -14 21 -14 8 0 15 -7 15 -15 0 -10 10
-15 30 -15 20 0 30 -5 30 -15 0 -10 11 -15 35 -15 24 0 35 -5 35 -14 0 -8 14
-17 30 -21 17 -4 30 -13 30 -21 0 -8 9 -14 20 -14 11 0 20 -7 20 -15 0 -10 10
-15 30 -15 20 0 30 -5 30 -15 0 -10 10 -15 30 -15 17 0 33 -6 36 -14 3 -8 19
-18 35 -21 16 -4 29 -13 29 -21 0 -9 11 -14 30 -14 20 0 30 -5 30 -15 0 -8 9
-15 20 -15 11 0 20 -7 20 -15 0 -10 10 -15 30 -15 19 0 30 -5 30 -14 0 -8 15
-17 35 -20 21 -4 35 -13 35 -21 0 -10 10 -15 30 -15 20 0 30 -5 30 -15 0 -8 9
-15 20 -15 11 0 20 -7 20 -15 0 -10 10 -15 30 -15 20 0 30 -5 30 -15 0 -8 14
-17 35 -21 20 -3 35 -12 35 -20 0 -9 11 -14 30 -14 20 0 30 -5 30 -15 0 -8 9
-15 20 -15 11 0 20 -7 20 -15 0 -10 10 -15 30 -15 20 0 30 -5 30 -15 0 -8 14
-17 35 -21 20 -3 35 -12 35 -20 0 -9 11 -14 30 -14 20 0 30 -5 30 -15 0 -8 9
-15 19 -15 11 0 26 -7 35 -15 17 -17 146 -22 146 -5 0 5 16 12 35 16 19 3 35
12 35 19 0 8 12 15 28 17 21 2 28 9 30 31 2 15 9 27 17 27 7 0 16 16 19 35 4
19 11 35 16 35 6 0 11 203 12 523 l3 522 1093 3 c961 2 1092 4 1092 17 0 10
10 15 30 15 20 0 30 5 30 15 0 8 9 15 20 15 11 0 20 7 20 15 0 8 7 15 15 15 8
0 15 9 15 20 0 11 6 20 14 20 8 0 16 16 19 42 3 24 11 44 16 46 15 5 15 1702
1 1702 -5 0 -10 7 -10 15 0 13 -34 15 -250 15 l-250 0 0 -715 0 -715 -930 0
-930 0 0 2036 c0 1796 -2 2037 -15 2050 -8 9 -15 24 -15 35 0 10 -7 19 -15 19
-10 0 -15 10 -15 29 0 25 -5 31 -30 36 -16 4 -30 13 -30 21 0 8 -9 14 -20 14
-11 0 -20 7 -20 15 0 10 -10 15 -30 15 -19 0 -30 5 -30 14 0 8 -15 17 -35 20
-21 4 -35 13 -35 21 0 10 -10 15 -30 15 -20 0 -30 5 -30 15 0 8 -9 15 -20 15
-11 0 -20 7 -20 15 0 10 -10 15 -30 15 -19 0 -30 5 -30 14 0 8 -15 17 -35 20
-21 4 -35 13 -35 21 0 10 -10 15 -30 15 -20 0 -30 5 -30 15 0 10 -10 15 -30
15 -20 0 -30 5 -30 15 0 8 -9 15 -20 15 -11 0 -20 6 -20 14 0 8 -15 17 -35 20
-21 4 -35 13 -35 21 0 10 -10 15 -30 15 -20 0 -30 5 -30 15 0 10 -10 15 -30
15 -20 0 -30 5 -30 15 0 8 -9 15 -20 15 -11 0 -20 6 -20 14 0 8 -13 17 -29 21
-16 3 -32 13 -35 21 -3 8 -19 14 -36 14 -20 0 -30 5 -30 15 0 10 -10 15 -30
15 -20 0 -30 5 -30 15 0 8 -9 15 -20 15 -11 0 -20 6 -20 14 0 8 -13 17 -30 21
-16 4 -30 13 -30 21 0 9 -11 14 -35 14 -24 0 -35 5 -35 15 0 8 -9 15 -19 15
-11 0 -26 7 -35 15 -8 8 -22 15 -30 15 -9 0 -16 6 -16 14 0 8 -13 17 -30 21
-16 4 -30 13 -30 21 0 12 230 14 1645 14 l1645 0 0 -915 0 -915 260 0 260 0 0
1061 c0 929 -2 1062 -15 1075 -8 9 -15 31 -15 50 0 24 -5 34 -15 34 -8 0 -15
7 -15 15 0 8 -7 15 -15 15 -8 0 -15 9 -15 20 0 11 -6 20 -14 20 -8 0 -16 7
-20 15 -3 9 -18 15 -36 15 -20 0 -30 5 -30 15 0 13 -269 15 -2365 15 -2096 0
-2365 -2 -2365 -15z"/>
<path d="M6194 5695 c-4 -9 -19 -15 -35 -15 -19 0 -29 -5 -29 -15 0 -8 -6 -15
-14 -15 -8 0 -17 -15 -20 -35 -4 -19 -11 -35 -16 -35 -6 0 -10 -130 -10 -337
0 -186 -3 -348 -6 -360 l-6 -23 -749 0 c-659 0 -749 -2 -749 -15 0 -10 -10
-15 -30 -15 -19 0 -30 -5 -30 -14 0 -8 -13 -17 -30 -21 -16 -4 -30 -13 -30
-21 0 -8 -6 -14 -14 -14 -8 0 -17 -13 -21 -30 -4 -16 -13 -30 -21 -30 -9 0
-14 -11 -14 -30 0 -20 -5 -30 -15 -30 -13 0 -15 -22 -15 -135 0 -113 2 -135
15 -135 10 0 15 -10 15 -30 0 -20 5 -30 15 -30 8 0 15 -9 15 -20 0 -11 7 -20
15 -20 8 0 15 -7 15 -15 0 -8 9 -15 20 -15 11 0 20 -7 20 -15 0 -8 7 -15 15
-15 8 0 15 -7 15 -15 0 -10 16 -16 50 -21 32 -4 50 -11 50 -20 0 -12 119 -14
735 -14 l735 0 0 -356 c0 -303 2 -358 15 -370 8 -9 15 -24 15 -35 0 -10 7 -19
15 -19 8 0 15 -6 15 -14 0 -8 17 -15 50 -19 69 -8 150 2 150 19 0 8 7 14 15
14 8 0 15 7 15 15 0 8 9 15 20 15 11 0 20 6 20 14 0 8 14 17 30 21 17 4 30 13
30 21 0 8 7 14 15 14 8 0 15 7 15 15 0 10 10 15 30 15 20 0 30 5 30 15 0 8 9
15 20 15 11 0 20 7 20 15 0 8 6 15 13 15 7 0 20 9 30 20 9 11 24 20 32 20 8 0
15 7 15 15 0 8 9 15 20 15 11 0 20 7 20 15 0 8 7 15 15 15 9 0 18 6 21 14 3 8
19 18 35 21 16 4 29 13 29 21 0 8 7 14 15 14 8 0 15 7 15 15 0 10 10 15 30 15
19 0 30 5 30 14 0 7 9 16 20 19 11 3 20 12 20 21 0 9 7 16 15 16 8 0 15 4 15
9 0 5 14 12 30 16 17 4 30 13 30 21 0 8 9 14 20 14 11 0 20 7 20 15 0 8 6 15
13 15 7 0 20 9 30 20 9 11 26 20 37 20 11 0 20 7 20 15 0 8 7 15 15 15 8 0 15
7 15 15 0 10 10 15 29 15 20 0 30 6 34 20 3 11 12 20 21 20 9 0 16 7 16 15 0
8 7 15 15 15 8 0 15 7 15 15 0 10 10 15 30 15 20 0 30 5 30 15 0 8 9 15 20 15
11 0 20 7 20 15 0 8 7 15 15 15 8 0 15 6 15 14 0 8 14 17 30 21 17 4 30 13 30
21 0 8 9 14 20 14 11 0 20 6 20 14 0 8 13 17 29 21 16 3 32 13 35 21 3 8 12
14 21 14 8 0 15 7 15 15 0 8 7 15 15 15 8 0 15 7 15 15 0 10 10 15 30 15 20 0
30 5 30 15 0 7 8 18 18 24 14 8 18 27 21 96 3 81 2 87 -18 92 -12 3 -21 12
-21 19 0 8 -7 14 -15 14 -8 0 -15 6 -15 14 0 8 -13 17 -30 21 -16 4 -30 13
-30 21 0 8 -9 14 -20 14 -11 0 -20 7 -20 15 0 8 -7 15 -15 15 -8 0 -15 7 -15
15 0 8 -9 15 -20 15 -11 0 -28 9 -37 20 -10 11 -23 20 -30 20 -7 0 -13 7 -13
15 0 8 -7 15 -15 15 -8 0 -15 7 -15 15 0 10 -10 15 -30 15 -20 0 -30 5 -30 15
0 8 -9 15 -20 15 -11 0 -20 6 -20 14 0 8 -13 17 -30 21 -16 4 -30 13 -30 21 0
8 -9 14 -20 14 -11 0 -20 7 -20 15 0 8 -7 15 -15 15 -8 0 -15 6 -15 14 0 8
-13 17 -29 21 -16 3 -32 13 -35 21 -3 8 -12 14 -21 14 -8 0 -15 7 -15 15 0 8
-7 15 -15 15 -8 0 -15 7 -15 15 0 10 -10 15 -30 15 -20 0 -30 5 -30 15 0 8 -9
15 -20 15 -11 0 -20 6 -20 14 0 8 -13 17 -30 21 -16 4 -30 13 -30 21 0 8 -7
14 -15 14 -8 0 -15 7 -15 15 0 8 -9 15 -20 15 -11 0 -20 6 -20 14 0 8 -13 17
-30 21 -16 4 -30 13 -30 21 0 8 -9 14 -20 14 -11 0 -20 7 -20 15 0 8 -7 15
-15 15 -8 0 -15 7 -15 15 0 10 -10 15 -30 15 -20 0 -30 5 -30 15 0 8 -7 15
-16 15 -9 0 -18 9 -21 20 -4 14 -14 20 -34 20 -19 0 -29 5 -29 15 0 8 -7 15
-15 15 -8 0 -15 7 -15 15 0 8 -9 15 -20 15 -11 0 -20 6 -20 14 0 8 -13 17 -30
21 -16 4 -30 13 -30 21 0 8 -7 14 -15 14 -8 0 -15 7 -15 15 0 8 -9 15 -20 15
-11 0 -20 6 -20 14 0 8 -13 17 -29 21 -16 3 -32 13 -35 21 -3 8 -16 14 -30 14
-13 0 -26 7 -30 15 -3 9 -18 15 -36 15 -18 0 -33 -6 -36 -15z"/>
</g>
</svg>
