<?xml version="1.0" standalone="no"?>
<!DOCTYPE svg PUBLIC "-//W3C//DTD SVG 20010904//EN"
 "http://www.w3.org/TR/2001/REC-SVG-20010904/DTD/svg10.dtd">
<svg version="1.0" xmlns="http://www.w3.org/2000/svg"
 width="100px" height="100px" viewBox="0 0 5000.000000 5000.000000"
 preserveAspectRatio="xMidYMid meet">

<g transform="translate(0.000000,5000.000000) scale(0.100000,-0.100000)"
fill="#000000" stroke="none">
<path d="M38265 46874 c-808 -50 -1568 -340 -2178 -829 -59 -48 -185 -160
-280 -250 -94 -90 -6395 -6387 -14000 -13993 l-13828 -13829 -1510 -4529
-1509 -4529 -916 -2888 c-504 -1589 -914 -2891 -911 -2894 3 -3 574 175 1269
395 695 221 1974 626 2843 902 1374 435 2177 700 6155 2025 l4575 1525 13956
13958 c10087 10087 13985 13992 14060 14083 304 368 527 763 678 1201 392
1140 221 2398 -461 3390 -178 258 -175 256 -2629 2718 -1308 1312 -2442 2445
-2521 2517 -289 267 -566 462 -888 623 -439 220 -870 342 -1395 394 -71 7
-439 14 -510 10z m425 -1074 c556 -50 1042 -245 1485 -596 80 -63 759 -736
2453 -2428 1289 -1288 2390 -2391 2447 -2453 293 -318 498 -675 618 -1073 118
-392 147 -825 81 -1230 -76 -468 -267 -894 -572 -1280 -48 -60 -879 -900
-2254 -2275 l-2178 -2180 -4242 4243 -4243 4242 2180 2178 c1375 1375 2215
2206 2275 2254 452 357 946 552 1525 601 93 8 318 6 425 -3z m-2915 -10030
l4240 -4240 -765 -765 c-421 -421 -769 -765 -775 -765 -13 0 -8475 8462 -8475
8475 0 10 1520 1535 1530 1535 3 0 1913 -1908 4245 -4240z m1160 -7320 l-785
-785 -4242 4242 -4243 4243 785 785 785 785 4242 -4242 4243 -4243 -785 -785z
m-5778 2708 c2328 -2328 4233 -4237 4233 -4243 0 -5 -348 -358 -772 -782
l-773 -773 -4242 4242 -4243 4243 772 772 c425 425 777 773 783 773 5 0 1915
-1905 4242 -4232z m-5770 1150 l773 -773 -6662 -6662 -6663 -6663 -1547 0
c-852 0 -1548 3 -1548 7 0 12 14854 14863 14865 14863 5 0 358 -348 782 -772z
m-1269 -12055 l-6663 -6663 -1932 0 -1933 0 0 1932 0 1933 6662 6662 6663
6663 1932 -1932 1933 -1933 -6662 -6662z m8962 4352 c0 -11 -14851 -14865
-14862 -14865 -5 0 -8 696 -8 1547 l0 1548 6662 6662 6663 6663 772 -772 c425
-425 773 -777 773 -783z m-20550 -9770 l0 -2305 2305 0 2305 0 2 -1838 c2
-1011 2 -1845 0 -1853 -2 -9 -1029 -356 -3115 -1052 -1712 -570 -3119 -1037
-3127 -1037 -20 0 -4150 4130 -4150 4150 0 8 467 1415 1037 3127 696 2086
1043 3113 1052 3115 8 2 842 2 1853 0 l1838 -2 0 -2305z m-4462 -6768 l334
-334 -204 -145 c-111 -79 -547 -389 -968 -688 -421 -299 -841 -598 -935 -665
-200 -142 -201 -143 -190 -124 5 8 113 160 240 339 485 682 881 1238 1129
1588 142 199 259 362 259 362 1 0 152 -150 335 -333z"/>
</g>
</svg>
